:FULLY-SPECIFIED
:FORCE-ALL-JOINTS-BE-3DOF
:DEGREES
1835
root 6.75388 13.8578 27.7649 1060.46 51.9422 338.648
lfemur -53.3614 29.8897 1.69913
ltibia 70.0591 0 0
lfoot -7.60098 -8.98614 0
ltoes -26.4121 0 0
rfemur 3.42486 -3.2079 17.003
rtibia 49.9531 0 0
rfoot -25.5925 -31.4099 0
rtoes -25.7653 0 0
lowerback 13.7298 4.83992 4.79668
upperback -0.311398 7.73577 5.08695
thorax -8.09575 3.7029 1.16172
lowerneck -4.38637 9.13418 2.65851
upperneck 7.98486 12.2182 -1.40612
head 3.70903 6.098 -0.329219
lclavicle -1.05458e-013 1.01776e-014 0
lhumerus 61.9061 19.6443 109.457
lradius 10.2875 0 0
lwrist -88.5286 0 0
lhand -31.18 40.6186 0
lfingers 7.12502 0 0
lthumb -4.45718 70.5598 0
rclavicle -1.05458e-013 1.01776e-014 0
rhumerus -71.6484 12.6396 -79.2867
rradius 125.594 0 0
rwrist -158.83 0 0
rhand -66.8895 -349.019 0
rfingers 7.12502 0 0
rthumb -38.6516 368.731 0
1836
root 6.78347 13.8534 27.7755 1060.41 51.9852 338.443
lfemur -53.5741 29.982 1.70144
ltibia 70.2942 0 0
lfoot -7.80242 -9.00946 0
ltoes -26.5496 0 0
rfemur 3.59786 -3.27022 17.0493
rtibia 49.6387 0 0
rfoot -25.5314 -31.3771 0
rtoes -26.2518 0 0
lowerback 13.7638 4.86971 4.94214
upperback -0.342094 7.80491 5.08351
thorax -8.12836 3.72865 1.06125
lowerneck -4.22049 9.44917 2.90049
upperneck 7.88199 12.6504 -1.67385
head 3.69854 6.3108 -0.43976
lclavicle -1.08124e-013 1.045e-014 0
lhumerus 62.033 19.4127 109.626
lradius 10.27 0 0
lwrist -88.6444 0 0
lhand -31.1764 40.5407 0
lfingers 7.12502 0 0
lthumb -4.45366 70.4819 0
rclavicle -1.08124e-013 1.045e-014 0
rhumerus -71.8657 12.5936 -79.715
rradius 125.669 0 0
rwrist -156.209 0 0
rhand -65.9995 -355.624 0
rfingers 7.12502 0 0
rthumb -37.8103 361.561 0
1837
root 6.81306 13.849 27.7861 1060.35 52.047 338.224
lfemur -53.7862 30.0458 1.70545
ltibia 70.5009 0 0
lfoot -7.97712 -9.0205 0
ltoes -26.6462 0 0
rfemur 3.76943 -3.3473 17.1031
rtibia 49.3244 0 0
rfoot -25.4781 -31.3351 0
rtoes -26.751 0 0
lowerback 13.7994 4.89598 5.09734
upperback -0.372467 7.87085 5.07758
thorax -8.16024 3.75242 0.953307
lowerneck -4.04872 9.77008 3.14557
upperneck 7.77216 13.0907 -1.94422
head 3.68597 6.52773 -0.551535
lclavicle -1.10628e-013 1.06522e-014 0
lhumerus 62.1598 19.1519 109.778
lradius 10.2502 0 0
lwrist -88.7203 0 0
lhand -31.1847 40.4855 0
lfingers 7.12502 0 0
lthumb -4.4617 70.4262 0
rclavicle -1.10628e-013 1.06522e-014 0
rhumerus -72.0822 12.5359 -80.1506
rradius 125.738 0 0
rwrist -153.52 0 0
rhand -65.0718 -362.068 0
rfingers 7.12502 0 0
rthumb -36.933 353.941 0
1838
root 6.84265 13.8446 27.7967 1060.28 52.1244 337.992
lfemur -53.9966 30.0846 1.71103
ltibia 70.6829 0 0
lfoot -8.1283 -9.0203 0
ltoes -26.7085 0 0
rfemur 3.93893 -3.43656 17.1629
rtibia 49.012 0 0
rfoot -25.4322 -31.2856 0
rtoes -27.2575 0 0
lowerback 13.8359 4.91915 5.25994
upperback -0.402351 7.93374 5.06959
thorax -8.19118 3.7744 0.83965
lowerneck -3.87287 10.0943 3.39192
upperneck 7.65723 13.5357 -2.21538
head 3.67181 6.74702 -0.663723
lclavicle -1.12949e-013 1.07767e-014 0
lhumerus 62.285 18.8664 109.913
lradius 10.2288 0 0
lwrist -88.7596 0 0
lhand -31.2028 40.4494 0
lfingers 7.12502 0 0
lthumb -4.47913 70.3893 0
rclavicle -1.12949e-013 1.07767e-014 0
rhumerus -72.2971 12.4689 -80.5918
rradius 125.802 0 0
rwrist -150.781 0 0
rhand -64.1102 -368.329 0
rfingers 7.12502 0 0
rthumb -36.0233 345.992 0
1839
root 6.87225 13.8403 27.8074 1060.19 52.2144 337.753
lfemur -54.2044 30.1017 1.71807
ltibia 70.8437 0 0
lfoot -8.25921 -9.00992 0
ltoes -26.7433 0 0
rfemur 4.10573 -3.53539 17.2273
rtibia 48.7031 0 0
rfoot -25.3933 -31.2301 0
rtoes -27.7658 0 0
lowerback 13.8729 4.93965 5.42761
upperback -0.431582 7.99376 5.05994
thorax -8.22097 3.79479 0.722029
lowerneck -3.69478 10.4193 3.63767
upperneck 7.53904 13.9818 -2.48547
head 3.65657 6.96691 -0.775508
lclavicle -1.15069e-013 1.08158e-014 0
lhumerus 62.4072 18.561 110.03
lradius 10.2066 0 0
lwrist -88.766 0 0
lhand -31.2283 40.429 0
lfingers 7.12502 0 0
lthumb -4.50374 70.3677 0
rclavicle -1.15069e-013 1.08158e-014 0
rhumerus -72.5097 12.3952 -81.0367
rradius 125.858 0 0
rwrist -148.01 0 0
rhand -63.1188 -374.387 0
rfingers 7.12502 0 0
rthumb -35.0849 337.838 0
1840
root 6.90184 13.8359 27.818 1060.1 52.3137 337.51
lfemur -54.4085 30.1007 1.72645
ltibia 70.9871 0 0
lfoot -8.3731 -8.99041 0
ltoes -26.7571 0 0
rfemur 4.26919 -3.64119 17.2949
rtibia 48.3994 0 0
rfoot -25.361 -31.1704 0
rtoes -28.2703 0 0
lowerback 13.9096 4.95794 5.59801
upperback -0.459996 8.05107 5.04908
thorax -8.24942 3.81379 0.602196
lowerneck -3.51626 10.7424 3.88097
upperneck 7.41944 14.4254 -2.75263
head 3.64075 7.18565 -0.886069
lclavicle -1.16966e-013 1.07623e-014 0
lhumerus 62.5247 18.2401 110.126
lradius 10.1841 0 0
lwrist -88.7428 0 0
lhand -31.259 40.4206 0
lfingers 7.12502 0 0
lthumb -4.53337 70.358 0
rclavicle -1.16966e-013 1.07623e-014 0
rhumerus -72.7194 12.3174 -81.4834
rradius 125.906 0 0
rwrist -145.224 0 0
rhand -62.1014 -380.223 0
rfingers 7.12502 0 0
rthumb -34.1215 329.603 0
1841
root 6.93143 13.8315 27.8286 1060 52.4192 337.266
lfemur -54.608 30.085 1.73607
ltibia 71.1166 0 0
lfoot -8.47321 -8.96282 0
ltoes -26.7566 0 0
rfemur 4.42869 -3.75138 17.3644
rtibia 48.1026 0 0
rfoot -25.3348 -31.108 0
rtoes -28.7655 0 0
lowerback 13.9456 4.97444 5.76883
upperback -0.487429 8.10583 5.03741
thorax -8.2763 3.83159 0.481905
lowerneck -3.33914 11.061 4.11997
upperneck 7.30029 14.8631 -3.01503
head 3.62484 7.40148 -0.994588
lclavicle -1.1862e-013 1.06085e-014 0
lhumerus 62.6359 17.9084 110.202
lradius 10.1622 0 0
lwrist -88.6935 0 0
lhand -31.2926 40.4208 0
lfingers 7.12502 0 0
lthumb -4.56582 70.3566 0
rclavicle -1.1862e-013 1.06085e-014 0
rhumerus -72.9254 12.238 -81.9301
rradius 125.944 0 0
rwrist -142.44 0 0
rhand -61.0621 -385.816 0
rfingers 7.12502 0 0
rthumb -33.1366 321.411 0
1842
root 6.96102 13.8271 27.8392 1059.91 52.5278 337.025
lfemur -54.8019 30.0579 1.74679
ltibia 71.2358 0 0
lfoot -8.56279 -8.92822 0
ltoes -26.7485 0 0
rfemur 4.58358 -3.86336 17.4342
rtibia 47.8144 0 0
rfoot -25.3143 -31.0446 0
rtoes -29.246 0 0
lowerback 13.9803 4.98958 5.93771
upperback -0.513716 8.1582 5.02536
thorax -8.30141 3.84839 0.362908
lowerneck -3.16524 11.3726 4.35281
upperneck 7.18344 15.2912 -3.2708
head 3.60933 7.61264 -1.10025
lclavicle -1.20012e-013 1.03469e-014 0
lhumerus 62.7395 17.5706 110.257
lradius 10.1414 0 0
lwrist -88.6216 0 0
lhand -31.3269 40.4261 0
lfingers 7.12502 0 0
lthumb -4.59892 70.3603 0
rclavicle -1.20012e-013 1.03469e-014 0
rhumerus -73.1271 12.1598 -82.375
rradius 125.971 0 0
rwrist -139.676 0 0
rhand -60.0048 -391.147 0
rfingers 7.12502 0 0
rthumb -32.1339 313.383 0
1843
root 6.99062 13.8227 27.8498 1059.81 52.6363 336.791
lfemur -54.9892 30.0231 1.75852
ltibia 71.3484 0 0
lfoot -8.64508 -8.88764 0
ltoes -26.7393 0 0
rfemur 4.73322 -3.97452 17.5031
rtibia 47.5364 0 0
rfoot -25.299 -30.9817 0
rtoes -29.7064 0 0
lowerback 14.013 5.00381 6.10233
upperback -0.538694 8.20836 5.01335
thorax -8.32456 3.8644 0.246957
lowerneck -2.99638 11.6745 4.57764
upperneck 7.07074 15.7063 -3.51808
head 3.59474 7.81738 -1.20222
lclavicle -1.2112e-013 9.97017e-015 0
lhumerus 62.8337 17.2312 110.288
lradius 10.1225 0 0
lwrist -88.5305 0 0
lhand -31.3596 40.4328 0
lfingers 7.12502 0 0
lthumb -4.63046 70.3655 0
rclavicle -1.2112e-013 9.97017e-015 0
rhumerus -73.3237 12.0851 -82.816
rradius 125.986 0 0
rwrist -136.95 0 0
rhand -58.9335 -396.195 0
rfingers 7.12502 0 0
rthumb -31.117 305.645 0
1844
root 7.02021 13.8183 27.8604 1059.72 52.7416 336.567
lfemur -55.1688 29.9837 1.77113
ltibia 71.4579 0 0
lfoot -8.72332 -8.84214 0
ltoes -26.7358 0 0
rfemur 4.877 -4.08229 17.5696
rtibia 47.2704 0 0
rfoot -25.2886 -30.9209 0
rtoes -30.1409 0 0
lowerback 14.0432 5.01757 6.26035
upperback -0.562196 8.25647 5.00181
thorax -8.34552 3.8798 0.135805
lowerneck -2.83439 11.9642 4.79261
upperneck 6.96403 16.1047 -3.75503
head 3.58156 8.01392 -1.2997
lclavicle -1.21926e-013 9.47069e-015 0
lhumerus 62.9171 16.8949 110.295
lradius 10.1062 0 0
lwrist -88.4237 0 0
lhand -31.3885 40.4374 0
lfingers 7.12502 0 0
lthumb -4.65829 70.3687 0
rclavicle -1.21926e-013 9.47069e-015 0
rhumerus -73.5146 12.0167 -83.2515
rradius 125.988 0 0
rwrist -134.279 0 0
rhand -57.852 -400.94 0
rfingers 7.12502 0 0
rthumb -30.0895 298.318 0
1845
root 7.0498 13.8139 27.871 1059.64 52.8406 336.356
lfemur -55.3399 29.9435 1.7845
ltibia 71.568 0 0
lfoot -8.80077 -8.79277 0
ltoes -26.7446 0 0
rfemur 5.01426 -4.18405 17.6322
rtibia 47.018 0 0
rfoot -25.2826 -30.8639 0
rtoes -30.5443 0 0
lowerback 14.0703 5.03128 6.40945
upperback -0.58406 8.30268 4.99115
thorax -8.36409 3.89479 0.0312056
lowerneck -2.68109 12.239 4.99586
upperneck 6.86518 16.4829 -3.9798
head 3.57028 8.20053 -1.39186
lclavicle -1.22408e-013 8.84099e-015 0
lhumerus 62.9882 16.5662 110.277
lradius 10.0931 0 0
lwrist -88.3047 0 0
lhand -31.4112 40.4365 0
lfingers 7.12502 0 0
lthumb -4.68019 70.3665 0
rclavicle -1.22408e-013 8.84099e-015 0
rhumerus -73.699 11.9571 -83.6795
rradius 125.975 0 0
rwrist -131.681 0 0
rhand -56.7645 -405.362 0
rfingers 7.12502 0 0
rthumb -29.0552 291.527 0
1846
root 7.07939 13.8096 27.8816 1059.57 52.9301 336.163
lfemur -55.5013 29.9056 1.79853
ltibia 71.6823 0 0
lfoot -8.88066 -8.74059 0
ltoes -26.7724 0 0
rfemur 5.14438 -4.27722 17.6896
rtibia 46.7809 0 0
rfoot -25.2805 -30.8123 0
rtoes -30.911 0 0
lowerback 14.0938 5.04538 6.54729
upperback -0.604122 8.34718 4.98181
thorax -8.38007 3.90957 -0.0650895
lowerneck -2.53829 12.4963 5.18553
upperneck 6.77602 16.8374 -4.19052
head 3.56141 8.37543 -1.47788
lclavicle -1.22546e-013 8.0736e-015 0
lhumerus 63.0453 16.2498 110.232
lradius 10.0839 0 0
lwrist -88.1769 0 0
lhand -31.4255 40.4265 0
lfingers 7.12502 0 0
lthumb -4.694 70.3555 0
rclavicle -1.22546e-013 8.0736e-015 0
rhumerus -73.8763 11.9088 -84.0982
rradius 125.947 0 0
rwrist -129.173 0 0
rhand -55.6747 -409.441 0
rfingers 7.12502 0 0
rthumb -28.0176 285.395 0
1847
root 7.10899 13.8052 27.8922 1059.51 53.007 335.991
lfemur -55.6522 29.8737 1.8131
ltibia 71.8044 0 0
lfoot -8.96624 -8.68665 0
ltoes -26.8258 0 0
rfemur 5.26672 -4.3592 17.7405
rtibia 46.5608 0 0
rfoot -25.282 -30.7676 0
rtoes -31.2354 0 0
lowerback 14.113 5.06031 6.67154
upperback -0.622215 8.39012 4.97419
thorax -8.39325 3.92434 -0.151327
lowerneck -2.40784 12.7337 5.35978
upperneck 6.69842 17.1646 -4.38534
head 3.55544 8.53687 -1.55695
lclavicle -1.2232e-013 7.161e-015 0
lhumerus 63.087 15.9503 110.16
lradius 10.0794 0 0
lwrist -88.0439 0 0
lhand -31.4292 40.4038 0
lfingers 7.12502 0 0
lthumb -4.69753 70.3322 0
rclavicle -1.2232e-013 7.161e-015 0
rhumerus -74.0457 11.8745 -84.5057
rradius 125.902 0 0
rwrist -126.773 0 0
rhand -54.5868 -413.157 0
rfingers 7.12502 0 0
rthumb -26.9803 280.045 0
1848
root 7.13858 13.8008 27.9028 1059.47 53.0682 335.844
lfemur -55.7914 29.8511 1.82809
ltibia 71.938 0 0
lfoot -9.06075 -8.632 0
ltoes -26.9114 0 0
rfemur 5.38065 -4.42739 17.7832
rtibia 46.3593 0 0
rfoot -25.2866 -30.7316 0
rtoes -31.5121 0 0
lowerback 14.1273 5.07652 6.77986
upperback -0.638177 8.43166 4.96873
thorax -8.40342 3.93929 -0.225755
lowerneck -2.29153 12.9484 5.51675
upperneck 6.63422 17.461 -4.56242
head 3.55287 8.6831 -1.62824
lclavicle -1.2171e-013 6.0957e-015 0
lhumerus 63.1117 15.6723 110.06
lradius 10.0801 0 0
lwrist -87.909 0 0
lhand -31.4199 40.3649 0
lfingers 7.12502 0 0
lthumb -4.6886 70.2932 0
rclavicle -1.2171e-013 6.0957e-015 0
rhumerus -74.2065 11.8568 -84.9001
rradius 125.839 0 0
rwrist -124.499 0 0
rhand -53.5045 -416.49 0
rfingers 7.12502 0 0
rthumb -25.9471 275.601 0
